# xmcd
#
# Track frame offsets: 
#        182
#        12242
#        23705
#        37392
#        49397
#        62617
#        72430
#        87212
#        99337
#        112670
#        132057
#        145572
#        157317
#
# Disc length: 2272 seconds
#
# Revision: 0
# Processed by: cddbd v1.5.1PL0 Copyright (c) Steve Scherf et al.
# Submitted via: ExactAudioCopy v0.95b2
#
DISCID=ab08de0d
DTITLE=Various Artist - Country Music's Golden Hit Parade
DYEAR=1900
DGENRE=
TTITLE0=Tennessee Ernie Ford - Sixteen Tons
TTITLE1=Sonny James - Young Love
TTITLE2=Jimmy Dean - Big Bad John
TTITLE3=Skeeter Davis - The End of the World
TTITLE4=Marty Robbins - Devil Woman
TTITLE5=Floyd Cramer - On the Rebound
TTITLE6=Jeannie C. Riley - Harper Valley P.T.A.
TTITLE7=Eddy Arnold - Make the World Go Away
TTITLE8=Lynn Anderson - Rose Garden
TTITLE9=Bobby Gentry - Ode to Billy Joe
TTITLE10=Billy Swan - I Can Help
TTITLE11=Crystal Gayle - Don't It Make My Brown Eyes Blue
TTITLE12=Ray Stevens - Misty
EXTD=
EXTT0=
EXTT1=
EXTT2=
EXTT3=
EXTT4=
EXTT5=
EXTT6=
EXTT7=
EXTT8=
EXTT9=
EXTT10=
EXTT11=
EXTT12=
PLAYORDER=
